<?xml version="1.0" encoding="utf-8"?>
<!-- Generator: Adobe Illustrator 23.0.6, SVG Export Plug-In . SVG Version: 6.00 Build 0)  -->
<svg version="1.1" id="Layer_1" xmlns="http://www.w3.org/2000/svg" xmlns:xlink="http://www.w3.org/1999/xlink" x="0px" y="0px"
	 viewBox="0 0 312.9 264.9" style="enable-background:new 0 0 312.9 264.9;" xml:space="preserve">
<style type="text/css">
	.st0{fill:#EBEBEB;}
	.st1{fill:#FFFFFF;}
	.st2{fill:#DBDBDB;}
	.st3{fill:#0EB5FD;}
	.st4{fill:#C7C7C7;}
	.st5{fill:#F7A9A0;}
	.st6{fill:#263238;}
	.st7{fill:#455A64;}
	.st8{fill:#37474F;}
</style>
<g id="freepik--Shadow--inject-2" transform="translate(92.131 298.66)">
	<ellipse id="Ellipse_29" class="st0" cx="64.3" cy="-61.8" rx="156.4" ry="28.1"/>
	<ellipse id="Ellipse_30" class="st0" cx="-52.3" cy="-85.1" rx="33.6" ry="6.6"/>
</g>
<g id="freepik--Notes--inject-2" transform="translate(193.57 283.073)">
	<path id="Path_330" class="st1" d="M40-52.5l24.2-14.3l30.7,10.3L69.7-41.2L40-52.5z"/>
	<path id="Path_331" class="st2" d="M68.8-45.2c1.5-1.1,3-2.1,4.6-3.1s3.1-2,4.7-2.9s3.2-1.9,4.8-2.8l2.4-1.3
		c0.8-0.4,1.6-0.9,2.5-1.3c-0.7,0.6-1.5,1.1-2.3,1.6l-2.3,1.6c-1.5,1-3.1,2-4.7,2.9s-3.2,1.9-4.8,2.8S70.4-46,68.8-45.2z"/>
	<path id="Path_332" class="st2" d="M72.7-51c1.7-1.4,3.5-2.6,5.4-3.8c1.9-1.2,3.8-2.2,5.8-3.1C80.5-55.1,76.8-52.8,72.7-51L72.7-51
		z"/>
	<path id="Path_333" class="st2" d="M61.5-47.5c1.5-1.1,3-2.1,4.6-3.1s3.1-2,4.7-2.9s3.2-1.9,4.8-2.8l2.4-1.3
		c0.8-0.4,1.6-0.9,2.5-1.3c-0.7,0.6-1.5,1.1-2.3,1.6l-2.3,1.5c-1.5,1-3.1,2-4.7,2.9s-3.2,1.9-4.8,2.8S63.1-48.3,61.5-47.5z"/>
	<path id="Path_334" class="st2" d="M60.5-50.3c2.5-1.9,5.2-3.6,7.9-5.3c2.7-1.7,5.4-3.2,8.3-4.6c-2.5,1.9-5.2,3.6-7.9,5.3
		S63.4-51.7,60.5-50.3z"/>
	<path id="Path_335" class="st2" d="M63.7-55.6c1.4-1.2,2.9-2.3,4.5-3.2c1.6-1,3.2-1.8,4.9-2.5c-1.4,1.2-2.9,2.3-4.5,3.2
		C67-57.1,65.4-56.3,63.7-55.6L63.7-55.6z"/>
	<path id="Path_336" class="st1" d="M-11-42L27.2-57L64-34.7L26-19.3L-11-42z"/>
	<path id="Path_337" class="st2" d="M25.5-23.8c2.5-1.2,5-2.3,7.5-3.4s5.1-2.2,7.6-3.2s5.1-2.1,7.7-3l3.9-1.5
		c1.3-0.5,2.6-0.9,3.9-1.4c-1.2,0.6-2.5,1.2-3.8,1.7l-3.8,1.7c-2.5,1.1-5.1,2.1-7.6,3.2s-5.1,2.1-7.7,3S28.1-24.7,25.5-23.8z"/>
	<path id="Path_338" class="st2" d="M35.3-31.7c2.7-1.4,5.5-2.7,8.4-3.8c2.8-1.2,5.7-2.2,8.7-3.1c-2.7,1.5-5.5,2.7-8.4,3.8
		C41.1-33.6,38.2-32.6,35.3-31.7z"/>
	<path id="Path_339" class="st2" d="M21.7-30.1c2.2-1.1,4.4-2,6.6-3S32.8-35,35-36s4.5-1.8,6.7-2.6l3.4-1.3c1.1-0.4,2.3-0.8,3.4-1.2
		c-1.1,0.5-2.2,1-3.3,1.5L42-38c-2.2,1-4.4,1.9-6.7,2.8s-4.5,1.8-6.7,2.6S24-30.9,21.7-30.1z"/>
	<path id="Path_340" class="st2" d="M20-33.3c2-1,4.1-1.9,6.1-2.8s4.1-1.8,6.2-2.6s4.2-1.7,6.3-2.4l3.1-1.2c1.1-0.4,2.1-0.7,3.2-1.1
		c-1,0.5-2,1-3,1.4l-3.1,1.3c-2,0.9-4.1,1.8-6.2,2.6s-4.2,1.7-6.3,2.4S22.1-34,20-33.3z"/>
	<path id="Path_341" class="st2" d="M10.4-33.4c2.5-1.2,5-2.3,7.5-3.4S23-39,25.6-40s5.1-2.1,7.7-3l3.9-1.5c1.3-0.5,2.6-0.9,3.9-1.4
		c-1.2,0.6-2.5,1.2-3.8,1.7l-3.8,1.7c-2.5,1.1-5.1,2.1-7.6,3.2s-5.1,2.1-7.7,3S13.1-34.3,10.4-33.4z"/>
	<path id="Path_342" class="st2" d="M10.1-37.2c2.2-1.1,4.4-2.1,6.7-3s4.5-1.9,6.8-2.8s4.5-1.8,6.8-2.7l3.4-1.3
		c1.2-0.4,2.3-0.8,3.5-1.2c-1.1,0.5-2.2,1-3.3,1.6l-3.4,1.5c-2.2,1-4.5,1.9-6.8,2.8s-4.5,1.8-6.8,2.7S12.4-38,10.1-37.2z"/>
	<path id="Path_343" class="st2" d="M2.9-38.2c2.5-1.2,5-2.3,7.5-3.4s5.1-2.2,7.6-3.2s5.1-2.1,7.7-3l3.9-1.4
		c1.3-0.5,2.6-0.9,3.9-1.4c-1.2,0.6-2.5,1.2-3.8,1.7L26-47.3c-2.5,1.1-5.1,2.1-7.6,3.2s-5.1,2.1-7.7,3S5.5-39.1,2.9-38.2z"/>
	<path id="Path_344" class="st2" d="M11.7-45.7c2.9-1.5,5.9-2.8,8.9-4c3-1.3,6.1-2.4,9.2-3.3c-2.9,1.5-5.9,2.8-8.9,4
		C17.8-47.9,14.8-46.6,11.7-45.7z"/>
	<path id="Path_345" class="st3" d="M-92.1-62.8L17.5-91.7l51,27.3L-38.7-28.6L-92.1-62.8z"/>
	<path id="Path_346" class="st1" d="M-85.3-63.3l48.9,31.4L64-65.3L14.7-91.5c0,0-30.1,4-31.5,4.4s-14.7,5.9-14.7,5.9
		S-50-78-51.3-77.5S-85.3-63.3-85.3-63.3z"/>
	<path id="Path_347" class="st2" d="M-31.4-81.2l6,3.9l5.9,3.9l11.8,7.9l11.7,8l5.8,4.1l5.8,4.1l-6-3.9L3.8-57L-8-65l-11.7-8
		l-5.8-4.1L-31.4-81.2z"/>
	<path id="Path_348" class="st2" d="M-22.1-58.3c1.3-0.4,2.6-0.8,3.8-1.1s2.6-0.6,3.9-1s2.6-0.6,3.9-0.8s2.6-0.5,4-0.7
		c-1.3,0.4-2.6,0.8-3.9,1.1s-2.6,0.6-3.9,1s-2.6,0.6-3.9,0.8S-20.7-58.5-22.1-58.3z"/>
	<path id="Path_349" class="st2" d="M-44.5-45.2c3.3-1.6,6.7-3.1,10-4.6s6.7-3,10.1-4.4c1.7-0.7,3.4-1.4,5.1-2.1
		c0.4-0.2,0.9-0.3,1.3-0.4l1.3-0.3l2.7-0.6c3.6-0.8,7.2-1.5,10.8-2.1c-3.5,0.9-7.1,1.8-10.7,2.6l-2.7,0.6c-0.9,0.2-1.8,0.4-2.6,0.7
		c-1.7,0.7-3.4,1.4-5.1,2.1l-10.1,4.3C-37.7-48-41.1-46.6-44.5-45.2z"/>
	<path id="Path_350" class="st2" d="M-41.1-42.9c3.2-1.6,6.4-3.1,9.7-4.6s6.5-2.9,9.8-4.4c1.6-0.7,3.3-1.4,4.9-2.1
		c0.4-0.2,0.8-0.3,1.3-0.5s0.9-0.2,1.3-0.3l2.6-0.6c3.5-0.7,7-1.5,10.5-2.1c-3.4,0.9-6.9,1.7-10.4,2.6l-2.6,0.6
		c-0.4,0.1-0.9,0.2-1.3,0.3s-0.8,0.3-1.2,0.5l-4.9,2.1c-3.3,1.4-6.5,2.9-9.8,4.3S-37.8-44.3-41.1-42.9z"/>
	<path id="Path_351" class="st2" d="M-37.7-41.1c3.3-1.4,6.6-2.8,9.9-4.2c3.3-1.4,6.6-2.7,9.9-4c1.7-0.7,3.3-1.3,5-1.9l5.2-1.5
		c3.4-0.9,6.9-1.9,10.4-2.7c-3.4,1.1-6.8,2.2-10.2,3.2l-5.1,1.5c-1.7,0.6-3.3,1.3-5,1.9c-3.3,1.3-6.6,2.6-10,3.9
		S-34.3-42.3-37.7-41.1z"/>
	<path id="Path_352" class="st2" d="M11.6-57.4c3-1.5,6.1-2.9,9.2-4.1c0.8-0.3,1.6-0.6,2.4-0.9c0.4-0.1,0.8-0.3,1.2-0.4l1.2-0.3
		l4.9-1.3c3.3-0.9,6.5-1.7,9.8-2.5s6.5-1.7,9.8-2.5c-3.2,1-6.5,1.9-9.7,2.8s-6.5,1.8-9.8,2.7l-4.9,1.3l-1.2,0.3
		c-0.4,0.1-0.8,0.3-1.2,0.4L21-61C17.9-59.7,14.8-58.5,11.6-57.4z"/>
	<path id="Path_353" class="st2" d="M8.3-59.9c3-1.3,6.1-2.4,9.1-3.5c1.5-0.5,3.1-1.1,4.7-1.5l4.7-1.3c3.1-0.9,6.3-1.7,9.5-2.5
		s6.3-1.7,9.5-2.4c-3.1,0.9-6.3,1.9-9.4,2.8s-6.3,1.8-9.4,2.7l-4.7,1.3c-0.8,0.2-1.5,0.5-2.3,0.7l-2.3,0.8
		C14.5-61.9,11.4-60.9,8.3-59.9z"/>
	<path id="Path_354" class="st2" d="M5.1-62.2c3-1.2,6-2.4,9.1-3.5c1.5-0.5,3-1.1,4.6-1.6l4.7-1.2c3.1-0.8,6.3-1.5,9.5-2.2
		s6.3-1.5,9.5-2.1c-3.1,0.9-6.3,1.7-9.4,2.5s-6.3,1.6-9.4,2.4c-1.6,0.4-3.2,0.8-4.7,1.2l-4.6,1.5C11.3-64.2,8.2-63.2,5.1-62.2z"/>
	<path id="Path_355" class="st2" d="M2.4-63.9c2.9-1.6,5.8-2.9,8.9-4.2c0.4-0.2,0.8-0.3,1.1-0.4c0.4-0.1,0.8-0.3,1.2-0.3l2.4-0.5
		l4.8-1c6.4-1.3,12.8-2.6,19.2-3.8c-6.3,1.5-12.7,2.9-19.1,4.4l-4.8,1.1l-2.4,0.5c-0.8,0.2-1.5,0.5-2.3,0.8
		C8.4-66.4,5.4-65.1,2.4-63.9z"/>
	<path id="Path_356" class="st2" d="M-0.6-66c2.9-1.5,5.8-2.9,8.9-4.2c0.4-0.2,0.8-0.3,1.2-0.4c0.4-0.1,0.8-0.3,1.2-0.3l2.4-0.5
		l4.8-1c6.4-1.3,12.8-2.6,19.2-3.8c-6.3,1.5-12.7,2.9-19.1,4.4L13.1-71l-2.4,0.5c-0.8,0.2-1.5,0.5-2.3,0.8C5.4-68.5,2.4-67.1-0.6-66
		z"/>
	<path id="Path_357" class="st2" d="M-3.6-68.1c2.9-1.5,5.8-2.9,8.9-4.2c0.4-0.2,0.8-0.3,1.2-0.4c0.4-0.1,0.8-0.3,1.2-0.3l2.4-0.5
		l4.8-1c6.4-1.3,12.8-2.6,19.2-3.8C27.7-77,21.3-75.5,15-74.1l-4.8,1l-2.4,0.5c-0.8,0.2-1.5,0.5-2.3,0.8C2.4-70.5-0.5-69.2-3.6-68.1
		z"/>
	<path id="Path_358" class="st2" d="M-6.6-70.2c2.9-1.6,5.8-2.9,8.9-4.2c0.4-0.2,0.8-0.3,1.2-0.4c0.4-0.1,0.8-0.3,1.2-0.3L7-75.7
		l4.8-1c6.4-1.3,12.8-2.6,19.2-3.8c-6.3,1.5-12.7,2.9-19.1,4.4l-4.8,1l-2.4,0.5c-0.8,0.2-1.5,0.5-2.3,0.8
		C-0.5-72.6-3.5-71.3-6.6-70.2z"/>
	<path id="Path_359" class="st2" d="M-10.5-71.9c2.9-1.5,5.8-2.9,8.9-4.2c0.4-0.2,0.8-0.3,1.2-0.4c0.4-0.1,0.8-0.3,1.2-0.3l2.4-0.5
		l4.8-1c6.4-1.3,12.8-2.6,19.2-3.8c-6.3,1.5-12.7,2.9-19.1,4.4l-4.8,1.1l-2.4,0.5c-0.8,0.2-1.5,0.5-2.3,0.8
		C-4.4-74.3-7.4-73-10.5-71.9z"/>
	<path id="Path_360" class="st2" d="M-14.2-73.5c2.9-1.5,5.8-2.9,8.9-4.2c0.4-0.2,0.8-0.3,1.2-0.4c0.4-0.1,0.8-0.3,1.2-0.3l2.4-0.5
		l4.8-1c6.4-1.3,12.8-2.6,19.2-3.8c-6.3,1.5-12.7,2.9-19.1,4.4l-4.8,1.1l-2.4,0.5c-0.8,0.2-1.5,0.5-2.3,0.8
		C-8.2-75.9-11.1-74.6-14.2-73.5z"/>
	<path id="Path_361" class="st2" d="M-17.2-75.6c2.9-1.5,5.8-2.9,8.8-4.2c0.4-0.2,0.8-0.3,1.1-0.4c0.4-0.1,0.8-0.3,1.2-0.3l2.4-0.5
		L1.2-82c6.4-1.2,12.8-2.4,19.2-3.5c-6.4,1.4-12.8,2.7-19.1,4l-4.8,1L-5.9-80c-0.8,0.2-1.5,0.5-2.3,0.8
		C-11.2-78-14.1-76.7-17.2-75.6z"/>
	<path id="Path_362" class="st2" d="M-20.2-77.7c2.9-1.5,5.8-2.9,8.8-4.2c0.4-0.2,0.8-0.3,1.1-0.4c0.4-0.1,0.8-0.3,1.2-0.3l2.4-0.4
		l4.8-0.8C4.6-85,11-86,17.4-87C11-85.7,4.6-84.6-1.7-83.4l-4.8,0.9L-9-82.1c-0.8,0.2-1.5,0.4-2.3,0.8
		C-14.2-80.1-17.1-78.8-20.2-77.7z"/>
	<path id="Path_363" class="st2" d="M-23.2-79.7c2.9-1.5,5.8-2.9,8.8-4.2c0.4-0.2,0.8-0.3,1.1-0.4c0.4-0.1,0.8-0.3,1.2-0.3l2.4-0.4
		l4.8-0.7c3.2-0.4,6.4-0.8,9.7-1.3s6.4-0.8,9.7-1.2c-6.4,1-12.8,2-19.2,2.9l-4.8,0.7l-2.4,0.4c-0.8,0.2-1.5,0.4-2.2,0.8
		C-17.2-82.2-20.1-80.9-23.2-79.7z"/>
	<path id="Path_364" class="st2" d="M-34.2-38.2c3.3-1.4,6.7-2.7,10.1-3.9s6.8-2.5,10.1-3.8c1.7-0.6,3.4-1.2,5.1-1.8l5.2-1.6
		c3.5-1,6.9-2,10.4-2.9C3.4-51-0.1-49.9-3.5-48.8l-5.2,1.6c-1.7,0.6-3.4,1.2-5.1,1.8L-24-41.8C-27.4-40.5-30.7-39.3-34.2-38.2z"/>
	<path id="Path_365" class="st2" d="M14-54.8c3.4-1.3,6.8-2.5,10.2-3.7s6.8-2.4,10.3-3.6c1.7-0.6,3.4-1.2,5.2-1.7l5.2-1.5
		c3.5-0.9,7-1.9,10.5-2.7c-3.4,1.1-6.9,2.2-10.4,3.2l-5.2,1.5c-1.7,0.5-3.4,1.2-5.1,1.7l-10.3,3.4C20.9-57,17.5-55.9,14-54.8z"/>
</g>
<g id="freepik--Trash--inject-2" transform="translate(114.388 308.755)">
	<path id="Path_366" class="st1" d="M-6.2-74.7c2.7-0.4,6.1-0.4,6.3,1.1s-1,2.4-0.6,3.1S2-68.2,3-67.2c0.9,0.9,1.5,2,1.8,3.2
		c0,0.4,0.6,1,0,1.8s-1,1.9-1.5,2.5c-0.6,0.6-0.6,1.5-0.1,2.1c0,0,0.1,0.1,0.1,0.1c0.7,1,0.1,4-1,5s-4.5-1.4-5.5-1.1s-1.1,0.8-2,1.4
		s-3.1,2.2-5.3,2.2s-3.4-2-4.8-2.9c-1.3-0.7-2.6-1.2-3.9-1.5c-1.1-0.5-2.2-1.2-2.9-2.2c-0.2-0.5-1.1-0.6-0.8-2s1-1.8,1-2.9v-2.6
		c0-1.3-1-3.6-0.1-4.6s1.5-2.5,2.9-2.5s5.9,0.8,5.9,0.8c0.5-0.5,0.9-1.1,1.3-1.7c0.7-1.1,1.8-1.8,3.1-1.8
		C-8.1-74.2-7.1-74.3-6.2-74.7z"/>
	<path id="Path_367" class="st4" d="M-22.1-61.7c1.8,0.8,3.7,1.6,5.5,2.3s3.7,1.5,5.6,2.2c1.8,0.7,3.7,1.3,5.6,1.8
		c0.4,0.1,0.8,0.1,1.2,0.1l1.1-0.6c0.8-0.4,1.6-0.9,2.4-1.5c0.7-0.5,1.4-1.1,1.9-1.9c0.1-0.2,0.2-0.4,0.3-0.5l0.1-0.3l0-0.1l0,0
		c-0.1-0.3-0.3-0.6-0.5-0.8c-1.3-1.4-2.8-2.7-4.4-3.8c-1.6-1.2-3.2-2.3-4.9-3.3c-0.8-0.5-1.7-1.1-2.5-1.6c-0.4-0.2-0.9-0.5-1.3-0.7
		c-0.2-0.1-0.4-0.2-0.7-0.3c-0.2-0.1-0.5-0.2-0.7,0c0.2-0.2,0.5-0.1,0.7-0.1c0.3,0,0.5,0.1,0.7,0.2c0.5,0.2,1,0.3,1.4,0.5
		c0.9,0.4,1.9,0.8,2.8,1.3c1.8,0.9,3.5,1.9,5.3,3c1.8,1.1,3.4,2.4,4.9,3.8c0.5,0.5,0.8,1.1,0.9,1.8c0,0.1,0,0.3,0,0.4l-0.1,0.2
		L3-59.2c-0.1,0.3-0.2,0.5-0.4,0.8C2-57.5,1.3-56.7,0.4-56c-0.9,0.6-1.8,1.1-2.7,1.6L-3-54.1l-0.3,0.2l-0.2,0.1
		c-0.1,0-0.2,0.1-0.4,0.1c-0.6,0.1-1.2,0-1.8-0.2c-2-0.6-3.9-1.3-5.7-2.2C-15.1-57.7-18.7-59.6-22.1-61.7z"/>
	<path id="Path_368" class="st4" d="M-14.5-58.3c1-1.6,2.1-3,3.3-4.4c0.6-0.7,1.3-1.4,1.9-2c0.3-0.3,0.7-0.6,1.1-0.9
		c0.4-0.4,0.9-0.7,1.3-0.9c0.1,0,0.2-0.1,0.3-0.1c0.2,0,0.4,0,0.5,0c0.3,0.1,0.5,0.2,0.7,0.4c0.2,0.2,0.4,0.4,0.5,0.6
		c0.3,0.4,0.6,0.8,0.8,1.2c0.5,0.8,0.9,1.6,1.2,2.5c0.8,1.7,1.4,3.4,1.7,5.2L-4-61.3c-0.5-0.8-0.9-1.5-1.4-2.3
		c-0.2-0.4-0.5-0.7-0.7-1.1c-0.1-0.1-0.2-0.3-0.3-0.4l0.1,0.1c0.1,0,0.1,0,0.2,0h-0.1c-0.3,0.2-0.6,0.4-0.9,0.6l-1,0.8l-2,1.8
		C-11.6-60.6-13-59.4-14.5-58.3z"/>
	<path id="Path_369" class="st1" d="M-55.6-62c-1.4,0.3-3.3,0.5-3.5-0.3s0.4-1.3,0.2-1.7c-0.7-0.6-1.4-1.1-2.1-1.6
		c-0.5-0.4-0.9-1-1.1-1.7c0-0.2-0.4-0.5-0.1-1s0.4-1.1,0.7-1.4c0.3-0.3,0.3-0.8,0-1.1c0,0-0.1-0.1-0.1-0.1c-0.4-0.9-0.3-2,0.3-2.8
		c0.6-0.6,2.5,0.5,3.1,0.4s0.6-0.5,1-0.9c0.8-0.8,1.8-1.3,2.8-1.5c1.3-0.1,2,0.9,2.8,1.4c0.7,0.3,1.5,0.5,2.2,0.6
		c0.6,0.2,1.2,0.5,1.7,1c0.2,0.3,0.7,0.3,0.5,1.1s-0.5,1-0.4,1.7s0.1,0.7,0.1,1.5s0.7,1.9,0.3,2.5s-0.7,1.5-1.5,1.5
		s-3.2-0.1-3.2-0.1c-0.2,0.3-0.4,0.6-0.6,1c-0.3,0.6-0.9,1.1-1.6,1.1C-54.5-62.3-55.1-62.2-55.6-62z"/>
	<path id="Path_370" class="st4" d="M-61.1-70.2c0.8-0.8,1.6-1.6,2.4-2.3l0.6-0.6l0.3-0.3c0.2-0.1,0.4-0.2,0.6-0.3
		c0.6-0.1,1.2-0.2,1.8-0.2c1.2,0,2.3,0,3.5,0.2c0.6,0.1,1.3,0.3,1.9,0.6c0.4,0.3,0.7,0.7,0.8,1.1c0.1,0.3,0.1,0.7,0.1,1.1
		c-0.1,1.2-0.3,2.4-0.8,3.5c-0.2,0.5-0.5,1.1-0.7,1.6c-0.1,0.3-0.3,0.5-0.5,0.8c-0.2,0.3-0.6,0.6-0.9,0.7c-1.2,0.3-2.4,0.4-3.6,0.2
		c-1.1-0.1-2.2-0.3-3.3-0.6c1.1-0.1,2.2-0.1,3.3-0.2c1,0,2.1-0.2,3-0.6c0.2-0.1,0.2-0.1,0.3-0.3c0.1-0.2,0.3-0.4,0.3-0.7
		c0.2-0.5,0.4-1,0.6-1.5c0.3-1,0.6-2,0.6-3c0-0.3,0.2-0.6,0.4-0.8c-0.6-0.2-1.2-0.3-1.8-0.4c-1.1-0.2-2.1-0.4-3.2-0.4
		c-0.5,0-1,0-1.5,0c-0.1,0-0.2,0-0.2,0l-0.4,0.2l-0.7,0.5C-59.2-71.3-60.1-70.7-61.1-70.2z"/>
	<path id="Path_371" class="st4" d="M-57.7-72.3c0.1,1.1,0,2.1,0.1,3c0,0.4,0.1,1,0.2,1s0,0,0,0h0.1c0.2,0,0.4,0,0.6-0.1
		c0.9-0.2,1.9-0.4,2.9-0.6c1-0.2,2-0.4,3.1-0.5c-1.6,1.4-3.6,2.3-5.7,2.8c-0.3,0-0.6,0.1-0.9,0c-0.2,0-0.4-0.1-0.6-0.2
		c-0.2-0.1-0.5-0.3-0.6-0.5c-0.3-0.6-0.4-1.3-0.3-2C-58.7-70.4-58.3-71.4-57.7-72.3L-57.7-72.3z"/>
	<path id="Path_372" class="st1" d="M-69.7-83.1c-0.7-2.3-0.6-4.9-3.2-4.6s-4.1-2.9-5.2-3.7s-5.2,0-6.1,0.8s-1.3,2.3-2.2,2.9
		s-2.2,1.7-3.3,2.7s-2.8,2.4-2.3,5s1.7,3.4,2.4,4.7s-0.5,3.6,0.5,6.5s6,4.1,7.3,3.6s4.7-2.7,6.5-2.7s2.4,1.5,4,0.6s4.1-2.8,4.2-3.6
		s-1.4-1.4-0.9-2.6s2.5-3.4,2.3-4.9S-69.2-81.4-69.7-83.1z"/>
	<path id="Path_373" class="st4" d="M-74.5-88c-3.1,1-6.2,2.2-9.2,3.7c-0.3,0.2-0.6,0.4-0.9,0.6c-0.1,0-0.2,0.6-0.3,0.9
		c-0.1,0.8-0.2,1.6-0.3,2.4c-0.2,1.6-0.3,3.3-0.3,4.9c0,0.8,0,1.6,0.1,2.4c0,0.2,0.1,0.4,0.2,0.6c0.3,0.1,0.6,0.2,0.9,0.3
		c1.6,0.2,3.2,0.3,4.8,0.2c0.8,0,1.6-0.1,2.4-0.2c0.7-0.1,1.6-0.3,2.4-0.5c1.6-0.3,3.3-0.6,4.8-1c0.4-0.1,0.7-0.2,1.1-0.3
		c0.1,0,0.1,0,0.2-0.1c0,0,0.1,0,0,0c-0.1,0-0.1,0.1-0.1,0.2c-0.1,0.2-0.1,0.4-0.1,0.6c0,0.1,0.1,0.2,0.2,0.3c0,0,0.1,0.1,0.1,0.1
		l0,0l-0.2-0.1c-0.7-0.2-1.5-0.4-2.3-0.6l-4.8-1.1c-1.6-0.4-3.2-0.7-4.9-1.1c-0.8-0.2-1.6-0.4-2.4-0.7c-0.5-0.2-1-0.4-1.4-0.7
		c-0.1-0.1-0.1-0.1-0.1-0.2c-0.1-0.1-0.1-0.2-0.1-0.3v-0.3c0-0.2,0-0.3,0.1-0.5c0.1-0.2,0.2-0.5,0.3-0.7c0.9-1.5,1.9-2.8,3.1-4
		c0.3-0.3,0.6-0.6,0.9-0.9c0.2-0.1,0.3-0.3,0.5-0.4c0.1-0.1,0.2-0.1,0.3-0.2c0.1-0.1,0.3-0.2,0.4-0.2c0.3-0.1,0.7,0,0.9,0.2
		c0.2,0.1,0.4,0.3,0.5,0.4c0.3,0.3,0.6,0.6,0.9,0.9c2,2.7,3.8,5.5,5.4,8.4c-1.8-2.7-3.9-5.4-6-7.9c-0.3-0.3-0.5-0.6-0.8-0.8
		c-0.2-0.2-0.4-0.3-0.7-0.4L-79-84c-0.1,0-0.2,0.1-0.2,0.2c-0.1,0.1-0.3,0.3-0.4,0.4c-0.3,0.3-0.6,0.6-0.8,0.9
		c-1.1,1.2-2,2.5-2.8,3.9c-0.1,0.2-0.1,0.3-0.2,0.5c0,0,0,0.2,0,0.1l0,0c0-0.1,0-0.1-0.1-0.2l0-0.1c0.3,0.1,0.6,0.3,0.9,0.3
		c0.7,0.2,1.5,0.4,2.3,0.6c1.6,0.4,3.2,0.7,4.8,1l6.2,1.2c0.8,0.2,0.3,0.2,1.2,0.4l0.4,0.1c0.1,0,0.2,0.1,0.2,0.1
		c0.1,0,0.2,0.1,0.2,0.2c0.1,0.1,0.2,0.2,0.2,0.3c0.1,0.2,0,0.5-0.1,0.7c-0.1,0.1-0.2,0.3-0.3,0.4c-0.1,0.1-0.1,0.1-0.2,0.1
		c-0.1,0.1-0.2,0.1-0.4,0.2c-0.4,0.2-0.8,0.3-1.3,0.4c-1.7,0.4-3.3,0.7-4.9,1c-0.9,0.1-1.5,0.3-2.5,0.5c-0.9,0.1-1.7,0.1-2.6,0.2
		c-1.7,0.1-3.4-0.1-5.1-0.3c-0.5-0.1-1-0.3-1.4-0.5c-0.3-0.2-0.5-0.5-0.6-0.9c-0.1-0.2-0.1-0.5-0.2-0.7c-0.1-0.9-0.1-1.7,0-2.6
		c0.1-1.7,0.3-3.3,0.5-5c0.1-0.8,0.3-1.7,0.4-2.5c0.2-0.4,0.1-0.8,0.6-1.4c0.4-0.3,0.7-0.5,1.2-0.7c1.5-0.7,3.1-1.2,4.7-1.7
		C-77.6-87.2-76-87.7-74.5-88z"/>
</g>
<g id="freepik--Character--inject-2" transform="translate(159.281 91.715)">
	<path id="Path_374" class="st5" d="M9.8-4.9c26,26.4,58.8,81.9,52.7,93.2c-6.8,12.5-43.1-24.5-42.9-26.6C19.7,60.1,7,26.3-2.7,1.8
		S3.4-11.4,9.8-4.9z"/>
	<path id="Path_375" class="st3" d="M19.4,61.7C18.3,58.1,0.9,13.7-4.1-0.4S-4.4-18.8,9.7-5.9C23.9,7,55,50,62.1,72.8
		c6.8,22-4.5,22-19.4,11.9C30.4,76.4,19.4,61.7,19.4,61.7z"/>
	<path id="Path_376" class="st1" d="M7.3-4.5c-0.2,1-0.5,1.9-0.9,2.8C6-0.7,5.5,0.1,4.8,0.9C5-0.1,5.3-1.1,5.7-2
		C6.1-2.9,6.6-3.7,7.3-4.5z"/>
	<path id="Path_377" class="st1" d="M51.8,54.1c-0.2,1-0.5,1.9-0.9,2.9c-0.4,0.9-0.9,1.8-1.6,2.5C49.7,57.5,50.5,55.7,51.8,54.1
		L51.8,54.1z"/>
	<path id="Path_378" class="st1" d="M36.5,30.8c-0.3,2-1.2,3.8-2.5,5.4c0.2-1,0.5-1.9,0.9-2.8C35.3,32.4,35.8,31.5,36.5,30.8
		L36.5,30.8z"/>
	<path id="Path_379" class="st1" d="M21.5,29c-1-0.2-1.9-0.5-2.8-0.9c-0.9-0.4-1.8-0.9-2.5-1.6C18.1,26.9,19.9,27.7,21.5,29L21.5,29
		z"/>
	<path id="Path_380" class="st1" d="M35.8,52.6c-1-0.2-1.9-0.5-2.9-0.9c-0.9-0.4-1.8-1-2.5-1.6C32.4,50.5,34.3,51.3,35.8,52.6
		L35.8,52.6z"/>
	<path id="Path_381" class="st1" d="M24.1,12.2c-1-0.2-1.9-0.5-2.9-0.9c-0.9-0.4-1.8-0.9-2.5-1.6c1,0.2,1.9,0.5,2.8,0.9
		C22.5,11,23.4,11.5,24.1,12.2z"/>
	<path id="Path_382" class="st1" d="M12,39.2c1.2,1.6,1.9,3.6,2.1,5.5C12.9,43.1,12.2,41.2,12,39.2z"/>
	<path id="Path_383" class="st1" d="M42.1,67.3c1.2,1.6,1.9,3.6,2.1,5.5C43,71.3,42.3,69.3,42.1,67.3z"/>
	<path id="Path_384" class="st1" d="M25.4,64.9c-0.8,0.6-1.6,1-2.5,1.3l-0.5-0.6h0.1C23.5,65.2,24.4,65,25.4,64.9z"/>
	<path id="Path_385" class="st1" d="M55.3,83c0.8-0.6,1.7-1.1,2.6-1.4c0.9-0.4,1.9-0.6,2.9-0.7c-0.8,0.6-1.7,1.1-2.6,1.4
		C57.2,82.7,56.3,82.9,55.3,83L55.3,83z"/>
	<path id="Path_386" class="st1" d="M7.6,16.5c-0.8,0.6-1.7,1.1-2.6,1.4c-0.6,0.2-1.3,0.4-2,0.6l-0.1-0.4c0.6-0.3,1.2-0.6,1.9-0.9
		C5.6,16.8,6.6,16.6,7.6,16.5z"/>
	<path id="Path_387" class="st3" d="M16.3,94.4h-99c0,0,15.7-77.6,53.7-111.3c4.7-4.2,15.3-3.2,22.2,0.2C-4.4-15.4,4.4-3,7,8.7
		S16.5,94.1,16.3,94.4z"/>
	<path id="Path_388" class="st6" d="M7.8,13.5c0.8,2.6,1.4,5.3,1.9,8v-0.3c0-1.5,0.1-3.1,0.2-4.6c0,0,0-0.1,0.1-0.1
		c0,0,0.1,0,0.1,0.1c0.2,1.5,0.2,3.1,0.1,4.6c0,0.7-0.1,1.5-0.1,2.2c0.2,1.2,0.4,2.4,0.5,3.7c0.3,2.3,1.1,10.9,1.1,12.6
		c0,0.4-0.4,0.4-0.5,0c-0.5-1.7-1.7-10.6-2.1-12.9C8.4,22.5,7.9,18,7.6,13.5C7.7,13.4,7.8,13.4,7.8,13.5z"/>
	<path id="Path_389" class="st1" d="M-22.8,3.4c-0.3,2-1.2,3.8-2.5,5.4c0.2-1,0.5-1.9,0.9-2.8C-24,5-23.5,4.2-22.8,3.4L-22.8,3.4z
		 M-36.3,42.8c-0.4,0.9-0.7,1.9-0.9,2.9c0.7-0.8,1.2-1.6,1.6-2.5c0.4-0.9,0.7-1.9,0.9-2.8C-35.3,41.1-35.8,41.9-36.3,42.8
		L-36.3,42.8z M-68.4,56.9c-0.4,0.9-0.7,1.9-0.9,2.8c0.7-0.8,1.2-1.6,1.6-2.5c0.4-0.9,0.7-1.9,0.9-2.9C-67.5,55.2-68,56-68.4,56.9
		L-68.4,56.9z M-44.8,82.2c-0.4,0.9-0.7,1.9-0.9,2.8c0.7-0.8,1.2-1.6,1.6-2.5c0.4-0.9,0.7-1.9,0.9-2.9
		C-43.8,80.4-44.4,81.3-44.8,82.2L-44.8,82.2z M-3.5,33.4c-0.4,0.9-0.7,1.9-0.9,2.8c0.7-0.8,1.2-1.6,1.6-2.5
		c0.4-0.9,0.7-1.9,0.9-2.8C-2.6,31.6-3.1,32.5-3.5,33.4L-3.5,33.4z M9.5,60.2C9.1,61.1,8.8,62,8.6,63c0.7-0.8,1.2-1.6,1.6-2.5
		c0.4-0.9,0.7-1.8,0.9-2.8C10.4,58.5,9.9,59.3,9.5,60.2L9.5,60.2z M-22,79.5c-0.4,0.9-0.7,1.9-0.9,2.9c0.7-0.8,1.2-1.6,1.6-2.5
		c0.4-0.9,0.7-1.9,0.9-2.9C-21,77.8-21.6,78.6-22,79.5L-22,79.5z M-52.1,27.3c-0.4,0.9-0.7,1.9-0.9,2.8c0.7-0.8,1.2-1.6,1.6-2.5
		c0.4-0.9,0.7-1.9,0.9-2.8C-51.2,25.5-51.7,26.4-52.1,27.3z M-14.7,18.5c-0.9-0.4-1.9-0.7-2.8-0.9c0.8,0.7,1.6,1.2,2.5,1.6
		c0.9,0.4,1.9,0.7,2.8,0.9C-12.9,19.4-13.8,18.9-14.7,18.5L-14.7,18.5z M-8.5,50.3c-0.9-0.4-1.9-0.7-2.8-0.9
		c0.8,0.7,1.6,1.2,2.5,1.6c0.9,0.4,1.9,0.7,2.8,0.9C-6.7,51.2-7.5,50.7-8.5,50.3L-8.5,50.3z M-66.7,84c-0.9-0.4-1.9-0.7-2.8-0.9
		c0.8,0.7,1.6,1.2,2.5,1.6c0.9,0.4,1.9,0.7,2.8,0.9C-64.9,85-65.8,84.5-66.7,84L-66.7,84z M-7.4,90.5c-0.9-0.4-1.9-0.7-2.9-0.9
		c0.8,0.6,1.6,1.2,2.5,1.6l0.6,0.3l1.6,0.1C-6.1,91.2-6.8,90.8-7.4,90.5L-7.4,90.5z M-44.4,58.3c-0.9-0.4-1.9-0.7-2.8-0.9
		c0.8,0.7,1.6,1.2,2.5,1.6c0.9,0.4,1.9,0.7,2.8,0.9C-42.7,59.2-43.5,58.7-44.4,58.3L-44.4,58.3z M-14.7-9.8
		c-0.9-0.4-1.9-0.7-2.8-0.9C-16.8-10-15.9-9.5-15-9c0.9,0.4,1.9,0.7,2.8,0.9C-12.9-8.8-13.8-9.4-14.7-9.8L-14.7-9.8z M-8.3,5
		C-7.9,6-7.5,6.8-6.9,7.6c-0.2-2-0.9-3.9-2.1-5.5C-8.8,3.1-8.6,4.1-8.3,5L-8.3,5z M7.4,78.7c0.3,0.9,0.8,1.8,1.4,2.6
		c-0.2-2-0.9-3.9-2.1-5.5C6.9,76.8,7.1,77.8,7.4,78.7L7.4,78.7z M-35,23.6c0.3,0.9,0.8,1.8,1.4,2.6c-0.1-1-0.3-2-0.7-2.9
		c-0.3-0.9-0.8-1.8-1.4-2.6C-35.6,21.6-35.4,22.6-35,23.6L-35,23.6z M-22.8,56c0.3,0.9,0.8,1.8,1.4,2.6c-0.2-2-0.9-3.9-2.1-5.5
		C-23.4,54.1-23.2,55-22.8,56L-22.8,56z M-79.5,94v0.4h0.3C-79.4,94.3-79.4,94.1-79.5,94z M-51.7,93.9c-0.3-0.9-0.8-1.8-1.4-2.6
		c0.1,1,0.3,2,0.7,2.9l0.1,0.3h0.8C-51.5,94.2-51.6,94-51.7,93.9L-51.7,93.9z M-57.3,71c0.3,0.9,0.8,1.8,1.4,2.6
		c-0.1-1-0.3-2-0.7-2.9c-0.3-0.9-0.8-1.8-1.4-2.6C-57.9,69.1-57.7,70.1-57.3,71L-57.3,71z M-33.4-5.3c0.3,0.9,0.8,1.8,1.4,2.6
		c-0.2-2-0.9-3.9-2.1-5.5C-34-7.2-33.7-6.3-33.4-5.3L-33.4-5.3z M-6.9,69.5c0.9-0.3,1.8-0.8,2.6-1.4c-1,0.1-2,0.3-2.9,0.7
		c-0.9,0.3-1.8,0.8-2.6,1.4C-8.8,70.1-7.8,69.8-6.9,69.5L-6.9,69.5z M-32.8,93.3c0.9-0.3,1.8-0.8,2.6-1.4c-1,0.1-2,0.3-2.9,0.7
		c-0.9,0.3-1.8,0.8-2.6,1.4C-34.7,93.9-33.7,93.7-32.8,93.3L-32.8,93.3z M-76.9,71.7c-0.1,0.2-0.1,0.5-0.2,0.7
		c0.5-0.2,0.9-0.5,1.3-0.8C-76.1,71.6-76.5,71.7-76.9,71.7L-76.9,71.7z M-54.3,44.3c0.9-0.3,1.8-0.8,2.6-1.4c-2,0.2-3.9,0.9-5.5,2.1
		C-56.2,44.9-55.2,44.6-54.3,44.3L-54.3,44.3z M-33.5,70.6c0.9-0.3,1.8-0.8,2.6-1.4c-1,0.1-2,0.3-2.9,0.7c-0.9,0.3-1.8,0.8-2.6,1.4
		C-35.4,71.1-34.4,70.9-33.5,70.6L-33.5,70.6z M-21.2,32.9c0.9-0.3,1.8-0.8,2.6-1.4c-1,0.1-2,0.3-2.9,0.7c-0.9,0.3-1.8,0.8-2.6,1.4
		C-23.1,33.5-22.1,33.2-21.2,32.9L-21.2,32.9z M5,17.9c0.9-0.3,1.8-0.8,2.6-1.4c-2,0.2-3.9,0.9-5.5,2.1C3,18.5,4,18.3,5,17.9L5,17.9
		z M-41.7,9.2c0.9-0.3,1.8-0.8,2.6-1.4c-1,0.1-2,0.3-2.9,0.7c-0.9,0.3-1.8,0.8-2.6,1.4C-43.7,9.7-42.7,9.5-41.7,9.2L-41.7,9.2z"/>
	<path id="Path_390" class="st5" d="M-7.3-0.2c-6,1.2-15.8-8.3-19.6-15.8c-0.3-0.5,0.7-5.8,1.6-12.3c0.5-3.9,1-8.3,1.2-12.4
		c0-0.8,25.1,7.1,25.1,7.1s-2.8,8.4-3.1,15.4c0,0.6,0,1.1,0.1,1.7c0,0.1,0,0.2,0,0.3C-1.5-13-1.5-1.4-7.3-0.2z"/>
	<path id="Path_391" class="st6" d="M-4.5-16.1c0.9,0.1,1.7,0.1,2.6,0c0-0.1,0-0.2,0-0.3C-2-17-2.1-17.5-2-18.1c0.2-7,3-15.4,3-15.4
		s-20.3-6.5-24.4-7.2C-22.8-36-19.5-17.1-4.5-16.1z"/>
	<path id="Path_392" class="st5" d="M-30.3-65.4c-1.9,9.2,5,34.6,11.9,39.9c10,7.6,25.1,7,31.3-4.7c5.9-11.4-3.7-44.4-11.3-49
		C-9.6-86.1-27.4-79-30.3-65.4z"/>
	<path id="Path_393" class="st6" d="M-4.2-50.8c0-0.1-0.1,0.1-0.1,0.2c0.5,1.7,0.8,3.7-0.6,4.7c0,0,0,0.1,0,0.1
		C-3-46.6-3.5-49.3-4.2-50.8z"/>
	<path id="Path_394" class="st6" d="M-6.2-52.2C-9-51.6-7.8-46-5.2-46.6S-3.9-52.6-6.2-52.2z"/>
	<path id="Path_395" class="st6" d="M6.4-53.4c0-0.1,0.2,0,0.2,0.1c0.3,1.7,1,3.7,2.7,3.9c0.1,0,0.1,0.1,0,0.1
		C7.3-49.1,6.4-51.7,6.4-53.4z"/>
	<path id="Path_396" class="st6" d="M7.5-55.6c2.7-0.8,4.2,4.7,1.7,5.5S5.2-54.9,7.5-55.6z"/>
	<path id="Path_397" class="st6" d="M-8.7-52.7c0.8-0.2,1.5-0.4,2.3-0.6c0.8-0.1,1.6-0.5,2.2-1c0.3-0.5,0.3-1.1-0.1-1.5
		c-0.8-0.7-2-0.9-3-0.6c-1.1,0.2-2,0.8-2.7,1.7c-0.4,0.6-0.2,1.4,0.4,1.8C-9.4-52.7-9-52.7-8.7-52.7L-8.7-52.7z"/>
	<path id="Path_398" class="st6" d="M9-58.9c-0.8,0-1.6,0-2.4-0.1c-0.8,0.1-1.7-0.1-2.4-0.5c-0.4-0.4-0.5-1-0.3-1.5
		c0.6-0.9,1.7-1.4,2.8-1.2c1.1,0,2.2,0.3,3,1.1c0.5,0.5,0.5,1.3,0.1,1.8C9.7-59.1,9.4-58.9,9-58.9L9-58.9z"/>
	<path id="Path_399" class="st6" d="M-2.2-34.9c0.5,0.3,1.1,0.8,1.7,0.7c0.6-0.2,1.2-0.5,1.8-0.9c0,0,0.1,0,0.1,0c0,0,0,0,0,0.1
		c-0.4,0.8-1.1,1.4-2,1.4c-0.8,0-1.4-0.5-1.7-1.2C-2.3-34.9-2.2-35-2.2-34.9z"/>
	<path id="Path_400" class="st6" d="M-1.5-40.5c1.2,1.2,2.8,1.8,4.5,1.7c0.7,0,1.5-0.2,2.1-0.4c0.1,0,0.3-0.1,0.4-0.1
		c0.1,0,0.3-0.1,0.4-0.1c0.2-0.1,0.3-0.3,0.3-0.5l0,0c0-0.1,0-0.1-0.1-0.2l0,0v-0.2c-0.3-1.3-0.9-3.3-0.9-3.3c0.5,0.1,3.3,0.7,3.1,0
		c-1.7-5.7-3.5-12-6.4-17.3c0-0.1-0.1-0.1-0.2-0.1S1.7-61,1.7-60.9c0,0,0,0,0,0C3.1-55.3,5.4-50,6.9-44.5c-1-0.2-2-0.3-3-0.2
		c-0.2,0.1,1.2,3.8,1.3,4.5c0,0,0,0,0,0.1c-2.2,0.8-4,0.5-6.5-0.5C-1.5-40.8-1.6-40.6-1.5-40.5z"/>
	<path id="Path_401" class="st6" d="M-25.3-42.7c0,0-9.3-13.8-8.9-22c0.2-3.7,5.1-6.5,5.1-6.5c-0.9-3.1-0.1-6.4,2.3-8.6
		c4.2-4.4,14.9-4,14.9-4s6.4-10.3,16.3-6.8s4.1,14.8,4.1,14.8s3.8,4.9-4.7,9.3c-8.3,4.3-25.9,1.4-25.9,1.4c1.1,5.9,1.3,12,0.6,18
		C-21.9-45-23.4-43.3-25.3-42.7L-25.3-42.7z"/>
	<path id="Path_402" class="st6" d="M-10.4-83.7c-2.2-0.8-4.6-1.1-6.9-0.9c-2.1,0.1-4.2,0.5-6.1,1.3c-3.4,1.4-6.4,4.2-6.8,8
		c-0.2,1.9,0.4,3.8,1.6,5.3c0,0.1,0.1,0,0.1-0.1c-2.4-2.7-1.4-7.1,0.8-9.5c2.5-2.8,6.5-4,10.1-4.3c2.4-0.2,4.8,0,7.2,0.4
		C-10.4-83.6-10.4-83.6-10.4-83.7C-10.3-83.7-10.4-83.7-10.4-83.7L-10.4-83.7z"/>
	<path id="Path_403" class="st6" d="M11.5-86.3c-1-2.6-3.3-4.5-6-5c-3.1-0.8-6.3-0.5-9.2,0.8c-2.9,1.3-5.4,3.4-7.3,6
		c0,0.1,0.1,0.1,0.1,0.1c3.5-4.5,9.1-7.3,14.8-6.4c2.6,0.4,5.2,1.6,6.5,4c1.1,2.3,1.2,4.9,0.1,7.3c-1.3,2.7-3.4,5-6,6.6
		c-0.1,0,0,0.1,0.1,0.1c2.4-1.3,4.5-3.3,6-5.6C12-80.9,12.3-83.7,11.5-86.3L11.5-86.3z"/>
	<path id="Path_404" class="st6" d="M5.9-66.1c-3.8,1.8-8,2.7-12.2,2.7c-4.4,0.1-8.7-0.3-13-1.1c-2.5-0.5-5-1-7.4-1.6
		c-0.1,0-0.1,0.1,0,0.1c4.3,1.6,8.8,2.8,13.4,3.4c4.3,0.6,8.6,0.3,12.7-0.8C1.7-64,3.9-64.9,5.9-66.1C6-66.1,5.9-66.1,5.9-66.1z"/>
	<path id="Path_405" class="st0" d="M-3.6-40.6c-3.9,0.5-7.5-2.2-8-6.1c-0.5-3.9,2.2-7.5,6.1-8c3.2-0.4,6.3,1.3,7.5,4.3l0,0
		c1.5,3.6-0.3,7.8-3.9,9.3C-2.4-40.8-3-40.7-3.6-40.6z M-5.4-53.7c-0.5,0.1-1,0.2-1.5,0.4c-3.2,1.3-4.7,4.9-3.4,8
		c1.3,3.2,4.9,4.7,8,3.4c3.2-1.3,4.7-4.9,3.4-8C0.1-52.6-2.6-54.1-5.4-53.7z"/>
	<path id="Path_406" class="st0" d="M12.2-44.8c-2.7,0.4-5.5-2-6.5-5.6c-0.5-1.7-0.4-3.5,0.2-5.2c0.7-2.3,3.2-3.7,5.5-3
		c0.7,0.2,1.3,0.6,1.8,1.1c1.3,1.2,2.3,2.7,2.7,4.4c1,3.8-0.5,7.5-3.3,8.2C12.5-44.8,12.3-44.8,12.2-44.8z M9.6-57.8
		c-0.1,0-0.2,0-0.4,0.1c-1.2,0.4-2.1,1.3-2.5,2.5c-0.5,1.5-0.6,3.1-0.2,4.6c0.9,3.3,3.4,5.5,5.8,4.9s3.5-3.8,2.6-7.1
		c-0.4-1.5-1.2-2.9-2.4-3.9C11.8-57.5,10.7-57.9,9.6-57.8L9.6-57.8z"/>
	<path id="Path_407" class="st0" d="M2-49.5L1.2-50c0.8-1.1,2.9-3,5.1-1.6l-0.5,0.8C3.8-52.1,2-49.6,2-49.5z"/>
	<path id="Path_408" class="st0" d="M-28.2-39.7l-0.9-0.2c0.1-0.4,1-4.2,3-5.1s14.5-2.9,15-3L-11-47c-3.6,0.6-13.4,2.3-14.8,2.9
		S-28-40.7-28.2-39.7z"/>
	<path id="Path_409" class="st5" d="M-21.4-44.2c0,0-6.7-7.7-10.3-5.2s2.1,14.1,6.7,15.3c2.4,0.8,5-0.5,5.7-2.9c0-0.1,0-0.1,0.1-0.2
		L-21.4-44.2z"/>
	<path id="Path_410" class="st6" d="M-30-46.1c-0.1,0-0.1,0.1,0,0.1c3.3,0.9,5.2,3.6,6.7,6.5c-1.1-1.1-2.4-1.6-3.8-0.3
		c-0.1,0.1,0,0.2,0.1,0.2c1.1-0.5,2.4-0.2,3.2,0.6c0.7,0.7,1.2,1.5,1.7,2.3c0.2,0.3,0.7,0.1,0.5-0.2c0,0,0,0,0-0.1
		C-22-40.9-25.7-46.2-30-46.1z"/>
	<path id="Path_411" class="st5" d="M62.5,88.3c-5.9,8.4-21.8,10-61.6,17.8c-5.5,1.1-23.6-35.7-17.8-37.2c7.3-1.8,36.2-7.4,38.3-7.5
		C39.7,60.3,66.5,82.6,62.5,88.3z"/>
	<path id="Path_412" class="st5" d="M-8.9,67.1c0,0-16.8,2.5-25.3,6.6c-11.3,5.5-18.8,14.8-21.7,19c-6.1,8.6-14.8,33.6-8.1,37.4
		c6.1,3.4,13.8-22.6,13.8-22.6s-12.2,25.2-4.1,28S-39,107.5-39,107.5s-11.9,26.2-3.1,27.7c6.7,1.1,14.7-26.3,14.7-26.3
		s-10.1,22.6-3.3,24c7.5,1.6,16.5-23.2,16.5-23.2c17.9,0.8,26.8-6.1,32.6-11.8C19.8,96.6-8.9,67.1-8.9,67.1z"/>
	<path id="Path_413" class="st6" d="M-46.6,98.5c-1.5,2.9-3.1,5.8-4.4,8.9s-2.4,6.1-3.4,9.3c-1.4,4.1-2.3,8.3-2.7,12.6
		c1.3-7.5,5.7-18.5,6.9-21.5s2.4-6.1,3.7-9.2C-46.4,98.4-46.5,98.4-46.6,98.5z"/>
	<path id="Path_414" class="st6" d="M-35.5,102.9c-1.8,3.8-3.7,7.5-5.4,11.4s-2.9,7.7-4.2,11.6c-0.1,0.3,0.1,0.3,0.2,0
		c1.5-3.9,3.2-7.4,4.8-11.3s3-7.8,4.7-11.7C-35.4,102.8-35.5,102.8-35.5,102.9z"/>
	<path id="Path_415" class="st6" d="M-25.3,104.9c-2.9,5.8-5.2,11.8-6.9,18c-0.1,0.3,0.2,0.2,0.3-0.1c2.2-6,3.8-10.8,6.8-17.8
		C-25.1,104.9-25.3,104.8-25.3,104.9z"/>
	<path id="Path_416" class="st3" d="M-12.4,67.1l34.9,38.8c0,0,35.3-8.1,40.5-17.1c3.4-6-23.2-30-43.2-27.2L-12.4,67.1z"/>
	<path id="Path_417" class="st1" d="M18.6,91.3c-0.2,1-0.5,1.9-0.9,2.8c-0.4,0.9-0.9,1.8-1.6,2.5c0.2-1,0.5-1.9,0.9-2.9
		C17.4,92.9,17.9,92.1,18.6,91.3L18.6,91.3z M42.8,89.1C42.4,90,42.1,91,41.9,92c0.7-0.8,1.2-1.6,1.6-2.5c0.4-0.9,0.7-1.9,0.9-2.9
		C43.8,87.4,43.2,88.2,42.8,89.1L42.8,89.1z M25.5,81c-0.9-0.4-1.9-0.7-2.9-0.9c0.8,0.7,1.6,1.2,2.5,1.6c0.9,0.4,1.9,0.7,2.9,0.9
		C27.3,81.9,26.4,81.4,25.5,81L25.5,81z M42.8,70.3c0.3,0.9,0.8,1.8,1.4,2.6c-0.2-2-0.9-3.9-2.1-5.5C42.2,68.4,42.4,69.4,42.8,70.3
		L42.8,70.3z M7.4,78.7c0.3,0.9,0.8,1.8,1.4,2.6c-0.2-2-0.9-3.9-2.1-5.5C6.9,76.8,7.1,77.8,7.4,78.7L7.4,78.7z M-6.9,69.5
		c0.9-0.3,1.8-0.8,2.6-1.4c-1,0.1-2,0.3-2.9,0.7c-0.9,0.3-1.8,0.8-2.6,1.4C-8.8,70.1-7.8,69.8-6.9,69.5L-6.9,69.5z M22.8,66.3
		c0.9-0.3,1.8-0.8,2.6-1.4c-1,0.1-2,0.3-2.9,0.7c-0.9,0.3-1.8,0.8-2.6,1.4C20.9,66.9,21.9,66.6,22.8,66.3L22.8,66.3z M33.8,100.4
		c0.9-0.3,1.8-0.8,2.6-1.4c-1,0.1-2,0.3-2.9,0.7c-0.9,0.3-1.8,0.8-2.6,1.4C31.9,101,32.8,100.8,33.8,100.4L33.8,100.4z M60,81.1
		c-0.7,0.1-1.4,0.3-2.1,0.6c-0.9,0.3-1.8,0.8-2.6,1.4c1-0.1,2-0.3,2.9-0.7c0.7-0.3,1.4-0.6,2.1-1L60,81.1z"/>
	<path id="Path_418" class="st6" d="M43.7,68c-3.2-2.3-12.3-7.8-23.9-6.3c-0.1,0-0.1,0.2,0,0.2c8.8-0.2,20.6,4.3,23.9,6.3
		C43.7,68.1,43.7,68,43.7,68z"/>
	<path id="Path_419" class="st6" d="M32,99.4c-3.6-4.5-7.4-8.8-11.3-13S13,77.8,9,73.7c-2.2-2.4-4.5-4.7-6.8-7c0,0-0.1,0-0.1,0
		c0,0,0,0.1,0,0.1c3.6,4.5,7.4,8.8,11.2,13.1s7.7,8.6,11.6,12.8c2.2,2.4,4.5,4.7,6.8,7C31.9,99.7,32.1,99.5,32,99.4z"/>
	<path id="Path_420" class="st6" d="M-0.1-11.1C-0.1-11.1-0.1-11.1-0.1-11.1C-0.1-11.1-0.2-11.1-0.1-11.1C0.5-5.7,1.8,6.7-6.7,6.6
		c-3.4-0.1-6.7-2-9.4-3.9c-2.8-2-5.4-4.2-7.7-6.8c-2.7-2.8-5.1-5.7-7.3-8.9c-0.1-0.1-0.3,0-0.2,0.2c2.2,3.1,4.1,6.4,6.7,9.4
		c2.4,2.9,5.2,5.4,8.3,7.5c2.9,1.9,6.4,3.8,10,3.7c3.4-0.1,5.8-2.4,6.6-5.6C1.1-2.2,1-6.7-0.1-11.1z"/>
	<path id="Path_421" class="st1" d="M-1.9-16.3L-8.1-1.4l-18.4-19.1l-5.3,6c0,0,17.8,30.3,18,28.9l6.3-12.8l8.8,9.1L0.8-11.9
		L-1.9-16.3z"/>
	<path id="Path_422" class="st6" d="M1.7-0.5C1.5-4.2,1.4-8,1-11.7c0-0.1-0.1-0.1-0.1-0.1c-0.1,0-0.1,0.1-0.1,0.1
		c-0.8,3.6,0.1,17.8,0,21.2l0,0c-0.4-0.4-8.2-8-8.2-7.9c-1.4,2-6,11.4-6.3,12.2C-16.7,9-27.5-8.5-30.9-13c0-0.1-0.1-0.1-0.2,0
		c0,0-0.1,0.1,0,0.2c2.5,5.1,16.8,28.6,17,28.6c2.4-4.4,4.6-8.9,6.6-13.6c1.3,1.7,9.2,10.2,9.2,9.7C1.9,7.7,1.9,3.6,1.7-0.5z"/>
	<path id="Path_423" class="st7" d="M31.6,40.7c0,0,3.8,8.7-2.3,10.8s-8.5-7-8.5-7L31.6,40.7z"/>
	<path id="Path_424" class="st7" d="M-0.9-18.1L-0.9-18.1l1.4-9.2l0.4-3l2.2,2.1l6.8,6.3l0,0l21.9,62.9l-10.8,3.8L-0.9-18.1
		L-0.9-18.1z"/>
	<path id="Path_425" class="st8" d="M0.4-27.2l0.4-3l2.2,2.1L0.4-27.2z"/>
	
		<rect id="Rectangle_35" x="19.3" y="40.7" transform="matrix(0.9445 -0.3284 0.3284 0.9445 -12.3662 10.8663)" class="st8" width="13.3" height="2.6"/>
	
		<rect id="Rectangle_36" x="18.4" y="38" transform="matrix(0.9445 -0.3284 0.3284 0.9445 -11.51 10.3985)" class="st8" width="13.3" height="2.6"/>
	<path id="Path_426" class="st8" d="M30.9,35.8l-4.1,1.4l-5.7-23.5l1.5-0.4L30.9,35.8z"/>
	<path id="Path_427" class="st5" d="M-46.4,1.9c-25.3,31.7-48.3,77.2-43.7,93.7c1.7,6,12.6,16,29,10.6c18.4-6.1,41.4-21.1,62.8-37.1
		c4.5-3.4-32.7-31.6-37.6-28c-2.3,1.7-8.5,7.5-9.5,7c-1.4-0.7,6.1-16.3,12.4-40.7C-26.3-18.4-35.4-11.9-46.4,1.9z"/>
	<path id="Path_428" class="st5" d="M17.4-0.9c3.4,4.2-7.6,11.8-7.6,11.8c2.3-0.2,4.7,0.4,6.6,1.7c3.3,2.5,0.9,8.7,0.9,8.7
		c2.5,0.3,4.8,1.3,6.7,2.9c2.9,2.7,1.4,9.3,1.4,9.3c2.1,1.5,3.6,3.7,4.3,6.2c1.4,6.8-6.2,14.1-11.1,18.9s-23,13.6-26.2,15.6
		l-30.6-30.7c0,0,15.6-27.3,22.1-32.1C-10.8,7.4,12.1-7.4,17.4-0.9z"/>
	<path id="Path_429" class="st6" d="M9.6,10.8C2.8,13.7-3.3,18.1-9.2,22.5c0,0.1,0,0.1,0,0.2c0,0,0.1,0,0.1,0
		c5.8-4.4,12.8-7.4,18.8-11.6c0.1-0.1,0.1-0.2,0-0.2C9.7,10.8,9.6,10.8,9.6,10.8L9.6,10.8z"/>
	<path id="Path_430" class="st6" d="M16.7,20.9c-1.5,0.8-2.9,1.8-4.1,2.9c-1.4,1.1-2.7,2.3-4,3.5c-2.7,2.4-5.3,4.8-7.8,7.3
		c-0.1,0.1,0,0.3,0.2,0.2c2.7-2.4,5.4-4.7,8.1-6.9c1.4-1.1,2.8-2.2,4.2-3.3c1.4-1,2.7-2.1,3.8-3.3c0.1-0.1,0.1-0.3,0-0.4
		C17,20.9,16.8,20.9,16.7,20.9L16.7,20.9z"/>
	<path id="Path_431" class="st6" d="M25.2,33.6c-1.3,0.7-2.5,1.7-3.5,2.9c-1.2,1.1-2.4,2.2-3.6,3.3c-2.4,2.2-4.8,4.4-7.3,6.5
		c-0.1,0-0.1,0.1,0,0.2c0,0.1,0.1,0.1,0.2,0c0,0,0,0,0,0c2.5-2.1,5.1-4.2,7.6-6.4c1.2-1.1,2.5-2.1,3.7-3.2c1.2-0.9,2.3-2,3.1-3.2
		C25.3,33.6,25.2,33.5,25.2,33.6C25.2,33.6,25.2,33.6,25.2,33.6L25.2,33.6z"/>
	<path id="Path_432" class="st6" d="M-7.9,76.1c1.4-1.4,2.9-2.7,4.5-3.8c1.6-1.2,3.3-2.2,5-3.2c-1.4,1.4-2.9,2.7-4.5,3.8
		C-4.5,74.1-6.2,75.2-7.9,76.1z"/>
	<path id="Path_433" class="st3" d="M-44.4,46.3c0,0,6.9-20.2,11.6-36.6S-26.5-21.9-44-3.4s-48.7,73-48.2,94.5
		c0.1,6.2,6.8,18.3,24.1,17.9S-3.7,80-3.7,80l-34.9-38L-44.4,46.3z"/>
	<path id="Path_434" class="st1" d="M-36.3,44.5c-0.2,0.4-0.5,0.8-0.8,1.1c0.1-0.5,0.2-1.1,0.4-1.6L-36.3,44.5z M-68.4,56.9
		c-0.4,0.9-0.7,1.9-0.9,2.8c0.7-0.8,1.2-1.6,1.6-2.5c0.4-0.9,0.7-1.9,0.9-2.9C-67.5,55.2-68,56-68.4,56.9L-68.4,56.9z M-44.8,82.2
		c-0.4,0.9-0.7,1.9-0.9,2.8c0.7-0.8,1.2-1.6,1.6-2.5c0.4-0.9,0.7-1.9,0.9-2.9C-43.8,80.4-44.4,81.3-44.8,82.2L-44.8,82.2z
		 M-89.2,85.8c-0.4,0.9-0.7,1.9-0.9,2.8c0.7-0.8,1.2-1.6,1.6-2.5c0.4-0.9,0.7-1.9,0.9-2.8C-88.3,84.1-88.8,84.9-89.2,85.8
		L-89.2,85.8z M-22,79.5c-0.4,0.9-0.7,1.9-0.9,2.9c0.7-0.8,1.2-1.6,1.6-2.5c0.4-0.9,0.7-1.9,0.9-2.9C-21,77.8-21.6,78.6-22,79.5
		L-22,79.5z M-52.1,27.3c-0.4,0.9-0.7,1.9-0.9,2.8c0.7-0.8,1.2-1.6,1.6-2.5c0.4-0.9,0.7-1.9,0.9-2.8C-51.2,25.5-51.7,26.4-52.1,27.3
		z M-57.5,14.1c0.7,0.3,1.4,0.5,2.2,0.6c-0.5-0.5-1.1-0.9-1.8-1.2L-57.5,14.1z M-81.1,55.5L-81.1,55.5c-0.1,0.2-0.2,0.5-0.3,0.7l0,0
		c0.9,0.4,1.9,0.7,2.9,0.9C-79.4,56.4-80.2,55.9-81.1,55.5L-81.1,55.5z M-66.7,84.1c-0.9-0.4-1.9-0.7-2.8-0.9
		c0.8,0.7,1.6,1.2,2.5,1.6c0.9,0.4,1.9,0.7,2.8,0.9C-64.9,85-65.8,84.5-66.7,84.1L-66.7,84.1z M-44.4,58.3c-0.9-0.4-1.9-0.7-2.8-0.9
		c0.8,0.7,1.6,1.2,2.5,1.6c0.9,0.4,1.9,0.7,2.8,0.9C-42.7,59.2-43.5,58.7-44.4,58.3L-44.4,58.3z M-78.9,96.9
		c0.3,0.9,0.8,1.8,1.4,2.6c-0.2-2-0.9-3.9-2.1-5.5C-79.5,95-79.2,96-78.9,96.9L-78.9,96.9z M-52.5,94.2c0.3,0.9,0.8,1.8,1.4,2.6
		c-0.1-1-0.3-2-0.7-2.9c-0.3-0.9-0.8-1.8-1.4-2.6C-53,92.2-52.8,93.2-52.5,94.2L-52.5,94.2z M-57.3,71c0.3,0.9,0.8,1.8,1.4,2.6
		c-0.1-1-0.3-2-0.7-2.9c-0.3-0.9-0.8-1.8-1.4-2.6C-57.9,69.1-57.7,70.1-57.3,71L-57.3,71z M-68.4,38.9c0.3,0.9,0.8,1.8,1.4,2.6
		c-0.2-2-0.9-3.9-2.1-5.5C-69,37-68.8,37.9-68.4,38.9L-68.4,38.9z M-33.4-5.3c0.3,0.9,0.8,1.8,1.4,2.6c-0.2-2-0.9-3.9-2.1-5.5
		C-34-7.2-33.7-6.3-33.4-5.3L-33.4-5.3z M-41.7,9.2c0.9-0.3,1.8-0.8,2.6-1.4c-1,0.1-2,0.3-2.9,0.7c-0.9,0.3-1.8,0.8-2.6,1.4
		C-43.7,9.7-42.7,9.5-41.7,9.2L-41.7,9.2z M-32.8,93.3c0.9-0.3,1.8-0.8,2.6-1.4c-1,0.1-2,0.3-2.9,0.7c-0.9,0.3-1.8,0.8-2.6,1.4
		C-34.7,93.9-33.7,93.7-32.8,93.3L-32.8,93.3z M-78.4,73c0.9-0.3,1.8-0.8,2.6-1.4c-1,0.1-2,0.3-2.9,0.7c-0.9,0.3-1.8,0.8-2.6,1.4
		C-80.3,73.5-79.3,73.3-78.4,73L-78.4,73z M-63.7,102.7c0.9-0.3,1.8-0.8,2.6-1.4c-1,0.1-2,0.3-2.9,0.7c-0.9,0.3-1.8,0.8-2.6,1.4
		C-65.6,103.3-64.6,103-63.7,102.7L-63.7,102.7z M-54.3,44.3c0.9-0.3,1.8-0.8,2.6-1.4c-2,0.2-3.9,0.9-5.5,2.1
		C-56.2,44.9-55.2,44.6-54.3,44.3L-54.3,44.3z M-33.5,70.6c0.9-0.3,1.8-0.8,2.6-1.4c-1,0.1-2,0.3-2.9,0.7c-0.9,0.3-1.8,0.8-2.6,1.4
		C-35.4,71.1-34.4,70.9-33.5,70.6L-33.5,70.6z"/>
	<path id="Path_435" class="st6" d="M-14.5,82.9c-3.6-4.5-7.4-8.8-11.3-13s-7.7-8.6-11.7-12.7c-2.2-2.4-4.5-4.7-6.8-7
		c0,0-0.1,0-0.1,0c0,0,0,0.1,0,0.1c3.6,4.5,7.4,8.8,11.2,13s7.7,8.6,11.6,12.8c2.2,2.4,4.5,4.7,6.8,7C-14.6,83.2-14.4,83-14.5,82.9z
		"/>
	<path id="Path_436" class="st6" d="M-34,21.6c-0.7,1-1.3,2-1.9,3.1c0.2-0.5,0.4-1.1,0.6-1.6c0.8-2.2,1.5-4.5,2.2-6.7
		c0-0.1-0.2-0.2-0.2-0.1c-0.8,1.9-1.6,3.8-2.4,5.8s-1.5,3.8-2.2,5.8c-1.5,3.9-3,7.8-4.3,11.7c-0.8,2.2-1.5,4.4-2.1,6.7
		c0,0.1,0.1,0.2,0.2,0.1c1.7-3.8,3.2-7.6,4.7-11.5c0.9-2.5,1.9-5.1,2.8-7.6c1-1.8,2-3.6,2.9-5.5C-33.9,21.6-33.9,21.5-34,21.6
		C-34,21.5-34,21.5-34,21.6L-34,21.6z"/>
	<path id="Path_437" class="st6" d="M-38.1,42.7c0,0-0.5-0.4-0.6-0.5c-1.7,1.5-3.6,2.8-5.4,4.2c-0.9,0.8-8,6.3-10.4,8.4
		c-5.7,4.8-11.2,9.8-16.7,14.9c-2.7,2.6-5.4,5.2-8,7.8s-5.3,5.3-7.8,8.1c0,0-0.1,0-0.1,0s0-0.1,0-0.1l0,0c2.7-3.2,5.5-6.5,8.3-9.6
		c5.1-5.5,10.4-10.8,16.1-15.7c2.8-2.5,5.7-4.8,8.7-7.2c1.9-1.5,8.4-6.5,9.3-7.2c1.9-1.4,3.8-3,5.7-4.3c0.1,0,0.9,1,0.9,1
		S-38,42.8-38.1,42.7z"/>
</g>
</svg>
